<?xml version="1.0" encoding="UTF-8"?>
<svg xmlns="http://www.w3.org/2000/svg" xmlns:xlink="http://www.w3.org/1999/xlink" viewBox="0 0 432.4 271.07">
  <defs>
    <style>
      .cls-1 {
        fill: #ebebec;
      }

      .cls-2 {
        fill: #e5e5e6;
      }

      .cls-3 {
        fill: #848587;
      }

      .cls-4 {
        fill: #c2c2c4;
      }

      .cls-5 {
        fill: #a5a6a7;
      }

      .cls-6 {
        fill: #a6a7a8;
      }

      .cls-7 {
        fill: #9c9d9f;
      }

      .cls-8 {
        fill: #d0d0d1;
      }

      .cls-9 {
        fill: #8a8b8d;
      }

      .cls-10 {
        fill: #a2a3a5;
      }

      .cls-11 {
        fill: url(#linear-gradient-2);
      }

      .cls-12 {
        fill: #c6c6c8;
      }

      .cls-13 {
        fill: #6e6f72;
      }

      .cls-14 {
        fill: #fcfcfc;
      }

      .cls-15 {
        fill: #e0e0e1;
      }

      .cls-16 {
        fill: #76777a;
      }

      .cls-17 {
        fill: #dcdcdd;
      }

      .cls-18 {
        fill: #bababc;
      }

      .cls-19 {
        fill: #c1c1c3;
      }

      .cls-20 {
        fill: #b1b2b3;
      }

      .cls-21 {
        fill: #838486;
      }

      .cls-22 {
        fill: #b4b5b6;
      }

      .cls-23 {
        fill: #b2b3b4;
      }

      .cls-24 {
        fill: #eaeaeb;
      }

      .cls-25 {
        fill: #f6f6f6;
      }

      .cls-26 {
        fill: #939496;
      }

      .cls-27 {
        fill: #828385;
      }

      .cls-28 {
        fill: #7d7e81;
      }

      .cls-29 {
        fill: #a3a4a6;
      }

      .cls-30 {
        fill: #dadadb;
      }

      .cls-31 {
        fill: #727376;
      }

      .cls-32 {
        fill: #868789;
      }

      .cls-33 {
        fill: #e3e3e4;
      }

      .cls-34 {
        fill: #c9c9ca;
      }

      .cls-35 {
        fill: #fff;
      }

      .cls-36 {
        fill: #dbdbdc;
      }

      .cls-37 {
        fill: #f0f0f0;
      }

      .cls-38 {
        fill: #a1a2a4;
      }

      .cls-39 {
        fill: #a4a5a6;
      }

      .cls-40 {
        fill: #757679;
      }

      .cls-41 {
        fill: #818284;
      }

      .cls-42 {
        fill: #aeafb0;
      }

      .cls-43 {
        fill: #b8b8ba;
      }

      .cls-44 {
        fill: #d7d7d8;
      }

      .cls-45 {
        fill: #7b7c7f;
      }

      .cls-46 {
        fill: #cbcbcc;
      }

      .cls-47, .cls-48, .cls-49, .cls-50 {
        fill: none;
      }

      .cls-51 {
        fill: #e2e2e3;
      }

      .cls-52 {
        fill: url(#linear-gradient-4);
      }

      .cls-53 {
        fill: #acadae;
      }

      .cls-54 {
        fill: #98999b;
      }

      .cls-55 {
        fill: #b5b6b7;
      }

      .cls-56 {
        fill: #707174;
      }

      .cls-57 {
        fill: #bdbdbf;
      }

      .cls-58 {
        fill: #bfbfc1;
      }

      .cls-59 {
        fill: #dededf;
      }

      .cls-60 {
        fill: #7c7d80;
      }

      .cls-61 {
        fill: #fbfbfb;
      }

      .cls-62 {
        fill: #f9f9f9;
      }

      .cls-63 {
        fill: url(#linear-gradient-3);
      }

      .cls-64 {
        fill: #8e8f91;
      }

      .cls-65 {
        fill: #d5d5d6;
      }

      .cls-66 {
        fill: #f2f2f2;
      }

      .cls-67 {
        fill: url(#linear-gradient-5);
      }

      .cls-68 {
        fill: #cdcdce;
      }

      .cls-69 {
        fill: #e4e4e5;
      }

      .cls-70 {
        fill: #a0a1a3;
      }

      .cls-71 {
        fill: #a7a8a9;
      }

      .cls-72 {
        fill: #231f20;
      }

      .cls-73 {
        isolation: isolate;
      }

      .cls-74 {
        fill: #6d6e71;
      }

      .cls-75 {
        fill: #8b8c8e;
      }

      .cls-76 {
        fill: #d9d9da;
      }

      .cls-77 {
        fill: #808183;
      }

      .cls-78 {
        fill: #f1f1f1;
      }

      .cls-79 {
        fill: #a8a9aa;
      }

      .cls-80 {
        fill: #797a7d;
      }

      .cls-81 {
        fill: #858688;
      }

      .cls-82 {
        fill: #7f8083;
      }

      .cls-83 {
        fill: #bcbcbe;
      }

      .cls-84 {
        mix-blend-mode: multiply;
        opacity: .2;
      }

      .cls-85 {
        fill: #898a8c;
      }

      .cls-86 {
        fill: #e1e1e2;
      }

      .cls-87 {
        fill: #9d9ea0;
      }

      .cls-88 {
        fill: #717275;
      }

      .cls-89, .cls-49, .cls-50 {
        mix-blend-mode: screen;
      }

      .cls-90 {
        fill: #b3b4b5;
      }

      .cls-91 {
        fill: #bbbbbd;
      }

      .cls-92 {
        fill: #9fa0a2;
      }

      .cls-93 {
        fill: #efefef;
      }

      .cls-94 {
        fill: #c8c8ca;
      }

      .cls-95 {
        fill: #afb0b1;
      }

      .cls-96 {
        fill: #eee;
      }

      .cls-97 {
        fill: #97989a;
      }

      .cls-98 {
        fill: #ececed;
      }

      .cls-99 {
        fill: #9b9c9e;
      }

      .cls-100 {
        fill: #ddddde;
      }

      .cls-101 {
        fill: url(#linear-gradient-6);
      }

      .cls-102 {
        fill: #8f9092;
      }

      .cls-103 {
        fill: #8d8e90;
      }

      .cls-104 {
        fill: #a9aaab;
      }

      .cls-105 {
        fill: #cfcfd0;
      }

      .cls-106 {
        fill: #969799;
      }

      .cls-107 {
        fill: #dfdfe0;
      }

      .cls-108 {
        fill: #b7b7b9;
      }

      .cls-109 {
        fill: #abacad;
      }

      .cls-110 {
        fill: #747578;
      }

      .cls-111 {
        fill: #999a9c;
      }

      .cls-112 {
        fill: #6f7073;
      }

      .cls-113 {
        fill: #f4f4f4;
      }

      .cls-114 {
        fill: #d8d8d9;
      }

      .cls-115 {
        fill: #d2d2d3;
      }

      .cls-116 {
        fill: #9a9b9d;
      }

      .cls-117 {
        fill: #d6d6d7;
      }

      .cls-118 {
        fill: #f5f5f5;
      }

      .cls-119 {
        fill: #b9b9bb;
      }

      .cls-120 {
        fill: #78797c;
      }

      .cls-121 {
        fill: #c3c3c5;
      }

      .cls-122 {
        fill: #7a7b7e;
      }

      .cls-123 {
        fill: #cececf;
      }

      .cls-124 {
        fill: #c7c7c9;
      }

      .cls-125 {
        fill: #929395;
      }

      .cls-126 {
        fill: #d4d4d5;
      }

      .cls-127 {
        fill: #77787b;
      }

      .cls-128 {
        fill: #e8e8e9;
      }

      .cls-129 {
        fill: #d1d1d2;
      }

      .cls-130 {
        fill: #e6e6e7;
      }

      .cls-131 {
        fill: #919294;
      }

      .cls-132 {
        fill: #e7e7e8;
      }

      .cls-133 {
        fill: #fefefe;
      }

      .cls-134 {
        fill: #ededed;
      }

      .cls-135 {
        fill: #cacacb;
      }

      .cls-136 {
        fill: #fafafa;
      }

      .cls-137 {
        fill: #b0b1b2;
      }

      .cls-138 {
        fill: #87888a;
      }

      .cls-139 {
        fill: #c0c0c2;
      }

      .cls-140 {
        fill: #959698;
      }

      .cls-141 {
        fill: #f8f8f8;
      }

      .cls-142 {
        fill: #aaabac;
      }

      .cls-143 {
        fill: #88898b;
      }

      .cls-144 {
        fill: url(#linear-gradient);
      }

      .cls-145 {
        fill: #bebec0;
      }

      .cls-146 {
        fill: #7e7f82;
      }

      .cls-48 {
        stroke: #6fa947;
        stroke-width: 4px;
      }

      .cls-48, .cls-49, .cls-50 {
        stroke-linecap: round;
        stroke-miterlimit: 10;
      }

      .cls-147 {
        fill: #9e9fa1;
      }

      .cls-148 {
        fill: #d3d3d4;
      }

      .cls-49 {
        stroke: url(#linear-gradient-7);
      }

      .cls-149 {
        fill: #909193;
      }

      .cls-150 {
        fill: #b6b7b8;
      }

      .cls-151 {
        fill: #949597;
      }

      .cls-152 {
        clip-path: url(#clippath);
      }

      .cls-153 {
        fill: #f7f7f7;
      }

      .cls-154 {
        fill: #adaeaf;
      }

      .cls-50 {
        stroke: url(#linear-gradient-8);
      }

      .cls-155 {
        fill: #8c8d8f;
      }

      .cls-156 {
        fill: #fdfdfd;
      }

      .cls-157 {
        fill: #737477;
      }

      .cls-158 {
        fill: #c4c4c6;
      }

      .cls-159 {
        fill: #e9e9ea;
      }

      .cls-160 {
        fill: #cccccd;
      }

      .cls-161 {
        fill: #f3f3f3;
      }

      .cls-162 {
        fill: #c5c5c7;
      }
    </style>
    <linearGradient id="linear-gradient" x1="-5.41" y1="-10.63" x2="500.61" y2="315.83" gradientUnits="userSpaceOnUse">
      <stop offset="0" stop-color="#fafbfd"/>
      <stop offset=".3" stop-color="#f4f6f8"/>
      <stop offset=".7" stop-color="#e3e8ea"/>
      <stop offset="1" stop-color="#d3dadd"/>
    </linearGradient>
    <linearGradient id="linear-gradient-2" x1="5.9" y1="-3.34" x2="461.12" y2="290.35" gradientUnits="userSpaceOnUse">
      <stop offset="0" stop-color="#fff" stop-opacity="0"/>
      <stop offset=".1" stop-color="#fff" stop-opacity=".02"/>
      <stop offset=".22" stop-color="#fff" stop-opacity=".09"/>
      <stop offset=".36" stop-color="#fff" stop-opacity=".19"/>
      <stop offset=".51" stop-color="#fff" stop-opacity=".34"/>
      <stop offset=".67" stop-color="#fff" stop-opacity=".53"/>
      <stop offset=".84" stop-color="#fff" stop-opacity=".76"/>
      <stop offset="1" stop-color="#fff"/>
    </linearGradient>
    <linearGradient id="linear-gradient-3" x1="388.79" y1="235.7" x2="374.43" y2="210.84" gradientUnits="userSpaceOnUse">
      <stop offset="0" stop-color="#9ccc65"/>
      <stop offset="1" stop-color="#267700"/>
    </linearGradient>
    <linearGradient id="linear-gradient-4" x1="385.76" y1="229.66" x2="375.67" y2="212.2" xlink:href="#linear-gradient-3"/>
    <linearGradient id="linear-gradient-5" x1="-73.23" y1="406.96" x2="318.07" y2="15.66" gradientUnits="userSpaceOnUse">
      <stop offset="0" stop-color="#8dc63f"/>
      <stop offset=".02" stop-color="#8fc743" stop-opacity=".98"/>
      <stop offset=".21" stop-color="#b1d87c" stop-opacity=".68"/>
      <stop offset=".4" stop-color="#cde6aa" stop-opacity=".44"/>
      <stop offset=".58" stop-color="#e2f0cf" stop-opacity=".25"/>
      <stop offset=".74" stop-color="#f2f8e9" stop-opacity=".11"/>
      <stop offset=".89" stop-color="#fbfdf9" stop-opacity=".03"/>
      <stop offset="1" stop-color="#fff" stop-opacity="0"/>
    </linearGradient>
    <clipPath id="clippath">
      <path class="cls-47" d="M344.86,241.07H22c-5.52,0-10-4.48-10-10V22c0-5.52,4.48-10,10-10h370.4c5.52,0,10,4.48,10,10v161.72c0,5.32-2.12,10.42-5.89,14.18l-37.54,37.35c-3.75,3.73-8.82,5.82-14.11,5.82Z"/>
    </clipPath>
    <linearGradient id="linear-gradient-6" x1="20.41" y1="6.02" x2="393.99" y2="247.05" gradientUnits="userSpaceOnUse">
      <stop offset="0" stop-color="#8dc63f" stop-opacity=".5"/>
      <stop offset=".08" stop-color="#9bcd57" stop-opacity=".44"/>
      <stop offset=".35" stop-color="#c6e29f" stop-opacity=".25"/>
      <stop offset=".61" stop-color="#e5f2d4" stop-opacity=".11"/>
      <stop offset=".83" stop-color="#f8fbf3" stop-opacity=".03"/>
      <stop offset="1" stop-color="#fff" stop-opacity="0"/>
    </linearGradient>
    <linearGradient id="linear-gradient-7" x1="379.68" y1="251.57" x2="379.68" y2="186.16" gradientUnits="userSpaceOnUse">
      <stop offset="0" stop-color="#9ccc65" stop-opacity=".1"/>
      <stop offset=".5" stop-color="#93c65d"/>
      <stop offset="1" stop-color="#93c65d" stop-opacity="0"/>
    </linearGradient>
    <linearGradient id="linear-gradient-8" x1="-4.28" y1="36.54" x2="50.27" y2="-9.23" xlink:href="#linear-gradient-7"/>
  </defs>
  <g class="cls-73">
    <g id="Layer_2" data-name="Layer 2">
      <g id="Layer_1-2" data-name="Layer 1">
        <g>
          <g class="cls-84">
            <rect class="cls-35" x="22" y="22" width="410.4" height="249.07" rx="24.64" ry="24.64"/>
            <rect class="cls-133" x="21.86" y="21.86" width="410.4" height="249.07" rx="24.58" ry="24.58"/>
            <rect class="cls-156" x="21.73" y="21.73" width="410.4" height="249.07" rx="24.52" ry="24.52"/>
            <rect class="cls-14" x="21.59" y="21.59" width="410.4" height="249.07" rx="24.46" ry="24.46"/>
            <rect class="cls-61" x="21.45" y="21.45" width="410.4" height="249.07" rx="24.4" ry="24.4"/>
            <rect class="cls-136" x="21.32" y="21.32" width="410.4" height="249.07" rx="24.34" ry="24.34"/>
            <rect class="cls-62" x="21.18" y="21.18" width="410.4" height="249.07" rx="24.29" ry="24.29"/>
            <rect class="cls-141" x="21.04" y="21.04" width="410.4" height="249.07" rx="24.23" ry="24.23"/>
            <rect class="cls-153" x="20.9" y="20.9" width="410.4" height="249.07" rx="24.17" ry="24.17"/>
            <rect class="cls-25" x="20.77" y="20.77" width="410.4" height="249.07" rx="24.11" ry="24.11"/>
            <rect class="cls-118" x="20.63" y="20.63" width="410.4" height="249.07" rx="24.05" ry="24.05"/>
            <rect class="cls-113" x="20.49" y="20.49" width="410.4" height="249.07" rx="23.99" ry="23.99"/>
            <rect class="cls-161" x="20.36" y="20.36" width="410.4" height="249.07" rx="23.93" ry="23.93"/>
            <rect class="cls-66" x="20.22" y="20.22" width="410.4" height="249.07" rx="23.87" ry="23.87"/>
            <rect class="cls-78" x="20.08" y="20.08" width="410.4" height="249.07" rx="23.81" ry="23.81"/>
            <rect class="cls-37" x="19.95" y="19.95" width="410.4" height="249.07" rx="23.75" ry="23.75"/>
            <rect class="cls-93" x="19.81" y="19.81" width="410.4" height="249.07" rx="23.69" ry="23.69"/>
            <rect class="cls-96" x="19.67" y="19.67" width="410.4" height="249.07" rx="23.63" ry="23.63"/>
            <rect class="cls-134" x="19.53" y="19.53" width="410.4" height="249.07" rx="23.58" ry="23.58"/>
            <rect class="cls-98" x="19.4" y="19.4" width="410.4" height="249.07" rx="23.52" ry="23.52"/>
            <rect class="cls-1" x="19.26" y="19.26" width="410.4" height="249.07" rx="23.46" ry="23.46"/>
            <rect class="cls-24" x="19.12" y="19.12" width="410.4" height="249.07" rx="23.4" ry="23.4"/>
            <rect class="cls-159" x="18.99" y="18.99" width="410.4" height="249.07" rx="23.34" ry="23.34"/>
            <rect class="cls-128" x="18.85" y="18.85" width="410.4" height="249.07" rx="23.28" ry="23.28"/>
            <rect class="cls-132" x="18.71" y="18.71" width="410.4" height="249.07" rx="23.22" ry="23.22"/>
            <rect class="cls-130" x="18.58" y="18.58" width="410.4" height="249.07" rx="23.16" ry="23.16"/>
            <rect class="cls-2" x="18.44" y="18.44" width="410.4" height="249.07" rx="23.1" ry="23.1"/>
            <rect class="cls-69" x="18.3" y="18.3" width="410.4" height="249.07" rx="23.04" ry="23.04"/>
            <rect class="cls-33" x="18.16" y="18.16" width="410.4" height="249.07" rx="22.98" ry="22.98"/>
            <rect class="cls-51" x="18.03" y="18.03" width="410.4" height="249.07" rx="22.92" ry="22.92"/>
            <rect class="cls-86" x="17.89" y="17.89" width="410.4" height="249.07" rx="22.87" ry="22.87"/>
            <rect class="cls-15" x="17.75" y="17.75" width="410.4" height="249.07" rx="22.81" ry="22.81"/>
            <rect class="cls-107" x="17.62" y="17.62" width="410.4" height="249.07" rx="22.75" ry="22.75"/>
            <rect class="cls-59" x="17.48" y="17.48" width="410.4" height="249.07" rx="22.69" ry="22.69"/>
            <rect class="cls-100" x="17.34" y="17.34" width="410.4" height="249.07" rx="22.63" ry="22.63"/>
            <rect class="cls-17" x="17.21" y="17.21" width="410.4" height="249.07" rx="22.57" ry="22.57"/>
            <rect class="cls-36" x="17.07" y="17.07" width="410.4" height="249.07" rx="22.51" ry="22.51"/>
            <rect class="cls-30" x="16.93" y="16.93" width="410.4" height="249.07" rx="22.45" ry="22.45"/>
            <rect class="cls-76" x="16.79" y="16.79" width="410.4" height="249.07" rx="22.39" ry="22.39"/>
            <rect class="cls-114" x="16.66" y="16.66" width="410.4" height="249.07" rx="22.33" ry="22.33"/>
            <rect class="cls-44" x="16.52" y="16.52" width="410.4" height="249.07" rx="22.27" ry="22.27"/>
            <rect class="cls-117" x="16.38" y="16.38" width="410.4" height="249.07" rx="22.21" ry="22.21"/>
            <rect class="cls-65" x="16.25" y="16.25" width="410.4" height="249.07" rx="22.15" ry="22.15"/>
            <rect class="cls-126" x="16.11" y="16.11" width="410.4" height="249.07" rx="22.1" ry="22.1"/>
            <rect class="cls-148" x="15.97" y="15.97" width="410.4" height="249.07" rx="22.04" ry="22.04"/>
            <rect class="cls-115" x="15.84" y="15.84" width="410.4" height="249.07" rx="21.98" ry="21.98"/>
            <rect class="cls-129" x="15.7" y="15.7" width="410.4" height="249.07" rx="21.92" ry="21.92"/>
            <rect class="cls-8" x="15.56" y="15.56" width="410.4" height="249.07" rx="21.86" ry="21.86"/>
            <rect class="cls-105" x="15.42" y="15.42" width="410.4" height="249.07" rx="21.8" ry="21.8"/>
            <rect class="cls-123" x="15.29" y="15.29" width="410.4" height="249.07" rx="21.74" ry="21.74"/>
            <rect class="cls-68" x="15.15" y="15.15" width="410.4" height="249.07" rx="21.68" ry="21.68"/>
            <rect class="cls-160" x="15.01" y="15.01" width="410.4" height="249.07" rx="21.62" ry="21.62"/>
            <rect class="cls-46" x="14.88" y="14.88" width="410.4" height="249.07" rx="21.56" ry="21.56"/>
            <rect class="cls-135" x="14.74" y="14.74" width="410.4" height="249.07" rx="21.5" ry="21.5"/>
            <rect class="cls-34" x="14.6" y="14.6" width="410.4" height="249.07" rx="21.44" ry="21.44"/>
            <rect class="cls-94" x="14.47" y="14.47" width="410.4" height="249.07" rx="21.39" ry="21.39"/>
            <rect class="cls-124" x="14.33" y="14.33" width="410.4" height="249.07" rx="21.33" ry="21.33"/>
            <rect class="cls-12" x="14.19" y="14.19" width="410.4" height="249.07" rx="21.27" ry="21.27"/>
            <rect class="cls-162" x="14.05" y="14.05" width="410.4" height="249.07" rx="21.21" ry="21.21"/>
            <rect class="cls-158" x="13.92" y="13.92" width="410.4" height="249.07" rx="21.15" ry="21.15"/>
            <rect class="cls-121" x="13.78" y="13.78" width="410.4" height="249.07" rx="21.09" ry="21.09"/>
            <rect class="cls-4" x="13.64" y="13.64" width="410.4" height="249.07" rx="21.03" ry="21.03"/>
            <rect class="cls-19" x="13.51" y="13.51" width="410.4" height="249.07" rx="20.97" ry="20.97"/>
            <rect class="cls-139" x="13.37" y="13.37" width="410.4" height="249.07" rx="20.91" ry="20.91"/>
            <rect class="cls-58" x="13.23" y="13.23" width="410.4" height="249.07" rx="20.85" ry="20.85"/>
            <rect class="cls-145" x="13.1" y="13.1" width="410.4" height="249.07" rx="20.79" ry="20.79"/>
            <rect class="cls-57" x="12.96" y="12.96" width="410.4" height="249.07" rx="20.73" ry="20.73"/>
            <rect class="cls-83" x="12.82" y="12.82" width="410.4" height="249.07" rx="20.68" ry="20.68"/>
            <rect class="cls-91" x="12.68" y="12.68" width="410.4" height="249.07" rx="20.62" ry="20.62"/>
            <rect class="cls-18" x="12.55" y="12.55" width="410.4" height="249.07" rx="20.56" ry="20.56"/>
            <rect class="cls-119" x="12.41" y="12.41" width="410.4" height="249.07" rx="20.5" ry="20.5"/>
            <rect class="cls-43" x="12.27" y="12.27" width="410.4" height="249.07" rx="20.44" ry="20.44"/>
            <rect class="cls-108" x="12.14" y="12.14" width="410.4" height="249.07" rx="20.38" ry="20.38"/>
            <rect class="cls-150" x="12" y="12" width="410.4" height="249.07" rx="20.32" ry="20.32"/>
            <rect class="cls-55" x="11.86" y="11.86" width="410.4" height="249.07" rx="20.26" ry="20.26"/>
            <rect class="cls-22" x="11.73" y="11.73" width="410.4" height="249.07" rx="20.2" ry="20.2"/>
            <rect class="cls-90" x="11.59" y="11.59" width="410.4" height="249.07" rx="20.14" ry="20.14"/>
            <rect class="cls-23" x="11.45" y="11.45" width="410.4" height="249.07" rx="20.08" ry="20.08"/>
            <rect class="cls-20" x="11.32" y="11.32" width="410.4" height="249.07" rx="20.02" ry="20.02"/>
            <rect class="cls-137" x="11.18" y="11.18" width="410.4" height="249.07" rx="19.97" ry="19.97"/>
            <rect class="cls-95" x="11.04" y="11.04" width="410.4" height="249.07" rx="19.91" ry="19.91"/>
            <rect class="cls-42" x="10.9" y="10.9" width="410.4" height="249.07" rx="19.85" ry="19.85"/>
            <rect class="cls-154" x="10.77" y="10.77" width="410.4" height="249.07" rx="19.79" ry="19.79"/>
            <rect class="cls-53" x="10.63" y="10.63" width="410.4" height="249.07" rx="19.73" ry="19.73"/>
            <rect class="cls-109" x="10.49" y="10.49" width="410.4" height="249.07" rx="19.67" ry="19.67"/>
            <rect class="cls-142" x="10.36" y="10.36" width="410.4" height="249.07" rx="19.61" ry="19.61"/>
            <rect class="cls-104" x="10.22" y="10.22" width="410.4" height="249.07" rx="19.55" ry="19.55"/>
            <rect class="cls-79" x="10.08" y="10.08" width="410.4" height="249.07" rx="19.49" ry="19.49"/>
            <rect class="cls-71" x="9.95" y="9.95" width="410.4" height="249.07" rx="19.43" ry="19.43"/>
            <rect class="cls-6" x="9.81" y="9.81" width="410.4" height="249.07" rx="19.37" ry="19.37"/>
            <rect class="cls-5" x="9.67" y="9.67" width="410.4" height="249.07" rx="19.31" ry="19.31"/>
            <rect class="cls-39" x="9.53" y="9.53" width="410.4" height="249.07" rx="19.25" ry="19.25"/>
            <rect class="cls-29" x="9.4" y="9.4" width="410.4" height="249.07" rx="19.2" ry="19.2"/>
            <rect class="cls-10" x="9.26" y="9.26" width="410.4" height="249.07" rx="19.14" ry="19.14"/>
            <rect class="cls-38" x="9.12" y="9.12" width="410.4" height="249.07" rx="19.08" ry="19.08"/>
            <rect class="cls-70" x="8.99" y="8.99" width="410.4" height="249.07" rx="19.02" ry="19.02"/>
            <rect class="cls-92" x="8.85" y="8.85" width="410.4" height="249.07" rx="18.96" ry="18.96"/>
            <rect class="cls-147" x="8.71" y="8.71" width="410.4" height="249.07" rx="18.9" ry="18.9"/>
            <rect class="cls-87" x="8.58" y="8.58" width="410.4" height="249.07" rx="18.84" ry="18.84"/>
            <rect class="cls-7" x="8.44" y="8.44" width="410.4" height="249.07" rx="18.78" ry="18.78"/>
            <rect class="cls-99" x="8.3" y="8.3" width="410.4" height="249.07" rx="18.72" ry="18.72"/>
            <rect class="cls-116" x="8.16" y="8.16" width="410.4" height="249.07" rx="18.66" ry="18.66"/>
            <rect class="cls-111" x="8.03" y="8.03" width="410.4" height="249.07" rx="18.6" ry="18.6"/>
            <rect class="cls-54" x="7.89" y="7.89" width="410.4" height="249.07" rx="18.54" ry="18.54"/>
            <rect class="cls-97" x="7.75" y="7.75" width="410.4" height="249.07" rx="18.49" ry="18.49"/>
            <rect class="cls-106" x="7.62" y="7.62" width="410.4" height="249.07" rx="18.43" ry="18.43"/>
            <rect class="cls-140" x="7.48" y="7.48" width="410.4" height="249.07" rx="18.37" ry="18.37"/>
            <rect class="cls-151" x="7.34" y="7.34" width="410.4" height="249.07" rx="18.31" ry="18.31"/>
            <rect class="cls-26" x="7.21" y="7.21" width="410.4" height="249.07" rx="18.25" ry="18.25"/>
            <rect class="cls-125" x="7.07" y="7.07" width="410.4" height="249.07" rx="18.19" ry="18.19"/>
            <rect class="cls-131" x="6.93" y="6.93" width="410.4" height="249.07" rx="18.13" ry="18.13"/>
            <rect class="cls-149" x="6.79" y="6.79" width="410.4" height="249.07" rx="18.07" ry="18.07"/>
            <rect class="cls-102" x="6.66" y="6.66" width="410.4" height="249.07" rx="18.01" ry="18.01"/>
            <rect class="cls-64" x="6.52" y="6.52" width="410.4" height="249.07" rx="17.95" ry="17.95"/>
            <rect class="cls-103" x="6.38" y="6.38" width="410.4" height="249.07" rx="17.89" ry="17.89"/>
            <rect class="cls-155" x="6.25" y="6.25" width="410.4" height="249.07" rx="17.83" ry="17.83"/>
            <rect class="cls-75" x="6.11" y="6.11" width="410.4" height="249.07" rx="17.78" ry="17.78"/>
            <rect class="cls-9" x="5.97" y="5.97" width="410.4" height="249.07" rx="17.72" ry="17.72"/>
            <rect class="cls-85" x="5.84" y="5.84" width="410.4" height="249.07" rx="17.66" ry="17.66"/>
            <rect class="cls-143" x="5.7" y="5.7" width="410.4" height="249.07" rx="17.6" ry="17.6"/>
            <rect class="cls-138" x="5.56" y="5.56" width="410.4" height="249.07" rx="17.54" ry="17.54"/>
            <rect class="cls-32" x="5.42" y="5.42" width="410.4" height="249.07" rx="17.48" ry="17.48"/>
            <rect class="cls-81" x="5.29" y="5.29" width="410.4" height="249.07" rx="17.42" ry="17.42"/>
            <rect class="cls-3" x="5.15" y="5.15" width="410.4" height="249.07" rx="17.36" ry="17.36"/>
            <rect class="cls-21" x="5.01" y="5.01" width="410.4" height="249.07" rx="17.3" ry="17.3"/>
            <rect class="cls-27" x="4.88" y="4.88" width="410.4" height="249.07" rx="17.24" ry="17.24"/>
            <rect class="cls-41" x="4.74" y="4.74" width="410.4" height="249.07" rx="17.18" ry="17.18"/>
            <rect class="cls-77" x="4.6" y="4.6" width="410.4" height="249.07" rx="17.12" ry="17.12"/>
            <rect class="cls-82" x="4.47" y="4.47" width="410.4" height="249.07" rx="17.07" ry="17.07"/>
            <rect class="cls-146" x="4.33" y="4.33" width="410.4" height="249.07" rx="17.01" ry="17.01"/>
            <rect class="cls-28" x="4.19" y="4.19" width="410.4" height="249.07" rx="16.95" ry="16.95"/>
            <rect class="cls-60" x="4.05" y="4.05" width="410.4" height="249.07" rx="16.89" ry="16.89"/>
            <rect class="cls-45" x="3.92" y="3.92" width="410.4" height="249.07" rx="16.83" ry="16.83"/>
            <rect class="cls-122" x="3.78" y="3.78" width="410.4" height="249.07" rx="16.77" ry="16.77"/>
            <rect class="cls-80" x="3.64" y="3.64" width="410.4" height="249.07" rx="16.71" ry="16.71"/>
            <rect class="cls-120" x="3.51" y="3.51" width="410.4" height="249.07" rx="16.65" ry="16.65"/>
            <rect class="cls-127" x="3.37" y="3.37" width="410.4" height="249.07" rx="16.59" ry="16.59"/>
            <rect class="cls-16" x="3.23" y="3.23" width="410.4" height="249.07" rx="16.53" ry="16.53"/>
            <rect class="cls-40" x="3.1" y="3.1" width="410.4" height="249.07" rx="16.47" ry="16.47"/>
            <rect class="cls-110" x="2.96" y="2.96" width="410.4" height="249.07" rx="16.41" ry="16.41"/>
            <rect class="cls-157" x="2.82" y="2.82" width="410.4" height="249.07" rx="16.36" ry="16.36"/>
            <rect class="cls-31" x="2.68" y="2.68" width="410.4" height="249.07" rx="16.3" ry="16.3"/>
            <rect class="cls-88" x="2.55" y="2.55" width="410.4" height="249.07" rx="16.24" ry="16.24"/>
            <rect class="cls-56" x="2.41" y="2.41" width="410.4" height="249.07" rx="16.18" ry="16.18"/>
            <rect class="cls-112" x="2.27" y="2.27" width="410.4" height="249.07" rx="16.12" ry="16.12"/>
            <rect class="cls-13" x="2.14" y="2.14" width="410.4" height="249.07" rx="16.06" ry="16.06"/>
            <rect class="cls-74" x="2" y="2" width="410.4" height="249.07" rx="16" ry="16"/>
          </g>
          <rect class="cls-144" x="2" y="2" width="410.4" height="249.07" rx="16" ry="16"/>
          <path class="cls-11" d="M344.7,241.07H22c-5.52,0-10-4.48-10-10V22c0-5.52,4.48-10,10-10h370.4c5.52,0,10,4.48,10,10v162.06c0,5.37-2.16,10.51-5.99,14.27l-37.7,37.01c-3.74,3.67-8.77,5.73-14.01,5.73Z"/>
          <path class="cls-63" d="M395.54,198.65v29.69c0,3.31-2.69,6-6,6h-29.67l35.67-35.69Z"/>
          <g class="cls-89">
            <path class="cls-52" d="M390.5,203.64v20.86c0,2.33-1.89,4.21-4.21,4.21h-20.84l25.06-25.07Z"/>
          </g>
          <rect class="cls-67" x="12" y="12" width="390.4" height="229.07" rx="10" ry="10"/>
          <g class="cls-152">
            <g>
              <g class="cls-89">
                <rect class="cls-72" x="-225.2" y="199" width="279.63" height="3.43" transform="translate(-166.94 -1.58) rotate(-45)"/>
                <rect class="cls-72" x="-212.55" y="199" width="279.63" height="3.43" transform="translate(-163.23 7.36) rotate(-45)"/>
                <rect class="cls-72" x="-199.9" y="199" width="279.63" height="3.43" transform="translate(-159.53 16.3) rotate(-45)"/>
                <rect class="cls-72" x="-187.26" y="199" width="279.63" height="3.43" transform="translate(-155.82 25.24) rotate(-45)"/>
                <rect class="cls-72" x="-174.61" y="199" width="279.63" height="3.43" transform="translate(-152.12 34.19) rotate(-45)"/>
                <rect class="cls-72" x="-161.96" y="199" width="279.63" height="3.43" transform="translate(-148.42 43.13) rotate(-45)"/>
                <rect class="cls-72" x="-149.32" y="199" width="279.63" height="3.43" transform="translate(-144.71 52.07) rotate(-45)"/>
                <rect class="cls-72" x="-136.67" y="199" width="279.63" height="3.43" transform="translate(-141.01 61.01) rotate(-45)"/>
                <rect class="cls-72" x="-124.03" y="199" width="279.63" height="3.43" transform="translate(-137.31 69.95) rotate(-45)"/>
                <rect class="cls-72" x="-111.38" y="199" width="279.63" height="3.43" transform="translate(-133.6 78.9) rotate(-45)"/>
                <rect class="cls-72" x="-98.73" y="199" width="279.63" height="3.43" transform="translate(-129.9 87.84) rotate(-45)"/>
                <rect class="cls-72" x="-86.09" y="199" width="279.63" height="3.43" transform="translate(-126.19 96.78) rotate(-45)"/>
                <rect class="cls-72" x="-73.44" y="199" width="279.63" height="3.43" transform="translate(-122.49 105.72) rotate(-45)"/>
                <rect class="cls-72" x="-60.8" y="199" width="279.63" height="3.43" transform="translate(-118.79 114.66) rotate(-45)"/>
                <rect class="cls-72" x="-48.15" y="199" width="279.63" height="3.43" transform="translate(-115.08 123.61) rotate(-45)"/>
                <rect class="cls-72" x="-35.5" y="199" width="279.63" height="3.43" transform="translate(-111.38 132.55) rotate(-45)"/>
                <rect class="cls-72" x="-22.86" y="199" width="279.63" height="3.43" transform="translate(-107.67 141.49) rotate(-45)"/>
                <rect class="cls-72" x="-10.21" y="199" width="279.63" height="3.43" transform="translate(-103.97 150.43) rotate(-45)"/>
                <rect class="cls-72" x="2.43" y="199" width="279.63" height="3.43" transform="translate(-100.27 159.37) rotate(-45)"/>
                <rect class="cls-72" x="15.08" y="199" width="279.63" height="3.43" transform="translate(-96.56 168.32) rotate(-45)"/>
                <rect class="cls-72" x="27.73" y="199" width="279.63" height="3.43" transform="translate(-92.86 177.26) rotate(-45)"/>
                <rect class="cls-72" x="40.37" y="199" width="279.63" height="3.43" transform="translate(-89.15 186.2) rotate(-45)"/>
                <rect class="cls-72" x="53.02" y="199" width="279.63" height="3.43" transform="translate(-85.45 195.14) rotate(-45)"/>
                <rect class="cls-72" x="65.66" y="199" width="279.63" height="3.43" transform="translate(-81.75 204.08) rotate(-45)"/>
                <rect class="cls-72" x="78.31" y="199" width="279.63" height="3.43" transform="translate(-78.04 213.03) rotate(-45)"/>
                <rect class="cls-72" x="90.96" y="199" width="279.63" height="3.43" transform="translate(-74.34 221.97) rotate(-45)"/>
                <rect class="cls-72" x="103.6" y="199" width="279.63" height="3.43" transform="translate(-70.63 230.91) rotate(-45)"/>
              </g>
              <g class="cls-89">
                <rect class="cls-72" x="116.07" y="199" width="279.63" height="3.43" transform="translate(-66.98 239.72) rotate(-45)"/>
                <rect class="cls-72" x="128.71" y="199" width="279.63" height="3.43" transform="translate(-63.28 248.67) rotate(-45)"/>
                <rect class="cls-72" x="141.36" y="199" width="279.63" height="3.43" transform="translate(-59.58 257.61) rotate(-45)"/>
                <rect class="cls-72" x="154" y="199" width="279.63" height="3.43" transform="translate(-55.87 266.55) rotate(-45)"/>
                <rect class="cls-72" x="166.65" y="199" width="279.63" height="3.43" transform="translate(-52.17 275.49) rotate(-45)"/>
                <rect class="cls-72" x="179.3" y="199" width="279.63" height="3.43" transform="translate(-48.46 284.43) rotate(-45)"/>
                <rect class="cls-72" x="191.94" y="199" width="279.63" height="3.43" transform="translate(-44.76 293.38) rotate(-45)"/>
                <rect class="cls-72" x="204.59" y="199" width="279.63" height="3.43" transform="translate(-41.06 302.32) rotate(-45)"/>
                <rect class="cls-72" x="217.23" y="199" width="279.63" height="3.43" transform="translate(-37.35 311.26) rotate(-45)"/>
                <rect class="cls-72" x="229.88" y="199" width="279.63" height="3.43" transform="translate(-33.65 320.2) rotate(-45)"/>
                <rect class="cls-72" x="242.53" y="199" width="279.63" height="3.43" transform="translate(-29.94 329.15) rotate(-45)"/>
                <rect class="cls-72" x="255.08" y="199" width="279.63" height="3.43" transform="translate(-26.27 338.02) rotate(-45)"/>
                <rect class="cls-72" x="267.73" y="199" width="279.63" height="3.43" transform="translate(-22.56 346.97) rotate(-45)"/>
                <rect class="cls-72" x="280.37" y="199" width="279.63" height="3.43" transform="translate(-18.86 355.91) rotate(-45)"/>
                <rect class="cls-72" x="293.02" y="199" width="279.63" height="3.43" transform="translate(-15.16 364.85) rotate(-45)"/>
                <rect class="cls-72" x="305.67" y="199" width="279.63" height="3.43" transform="translate(-11.45 373.79) rotate(-45)"/>
              </g>
            </g>
          </g>
          <path class="cls-101" d="M392.4,14c4.41,0,8,3.59,8,8v209.07c0,4.41-3.59,8-8,8H22c-4.41,0-8-3.59-8-8V22c0-4.41,3.59-8,8-8h370.4M392.4,12H22c-5.52,0-10,4.48-10,10v209.07c0,5.52,4.48,10,10,10h370.4c5.52,0,10-4.48,10-10V22c0-5.52-4.48-10-10-10h0Z"/>
          <path class="cls-48" d="M412.4,106.68v124.39c0,11.05-8.95,20-20,20h-229.73"/>
          <path class="cls-48" d="M2,53.24v-31.24C2,10.95,10.95,2,22,2h208.6"/>
          <path class="cls-49" d="M412.4,186.66v44.41c0,11.05-8.95,20-20,20h-45.43"/>
          <path class="cls-50" d="M2,43.24v-21.24C2,10.95,10.95,2,22,2h37.05"/>
        </g>
      </g>
    </g>
  </g>
</svg>